<?xml version="1.0" encoding="utf-8"?>
<!-- Generator: Adobe Illustrator 16.0.0, SVG Export Plug-In . SVG Version: 6.00 Build 0)  -->
<!DOCTYPE svg PUBLIC "-//W3C//DTD SVG 1.1//EN" "http://www.w3.org/Graphics/SVG/1.1/DTD/svg11.dtd" [
	<!ENTITY ns_flows "http://ns.adobe.com/Flows/1.0/">
	<!ENTITY ns_extend "http://ns.adobe.com/Extensibility/1.0/">
	<!ENTITY ns_ai "http://ns.adobe.com/AdobeIllustrator/10.0/">
	<!ENTITY ns_graphs "http://ns.adobe.com/Graphs/1.0/">
]>
<svg version="1.1" id="Layer_1" xmlns:x="&ns_extend;" xmlns:i="&ns_ai;" xmlns:graph="&ns_graphs;"
	 xmlns="http://www.w3.org/2000/svg" xmlns:xlink="http://www.w3.org/1999/xlink" xmlns:a="http://ns.adobe.com/AdobeSVGViewerExtensions/3.0/"
	 x="0px" y="0px" width="864px" height="864px" viewBox="0 0 864 864" enable-background="new 0 0 864 864" xml:space="preserve">
<g>
	<path fill-rule="evenodd" clip-rule="evenodd" fill="#F7941E" d="M611.187,315.218c-1.296-0.893-2.761-1.616-3.865-2.705
		c-21.821-21.518-46.263-39.579-73.196-54.066c-15.234-8.194-31.742-13.262-48.842-16.371c-16.92-3.077-33.735-3.694-50.602,0.235
		c-9.753,2.271-19.781,3.613-29.287,6.628c-9.603,3.046-19.184,6.805-27.943,11.73c-18.538,10.426-37.174,20.869-52.798,35.69
		c-1.826,1.732-4.001,3.103-6.054,4.587c-0.473,0.342-1.105,0.463-2.397,0.033c1.752-2.307,3.341-4.763,5.284-6.896
		c8.624-9.462,17.378-18.807,26.03-28.244c7.214-7.869,15.81-13.924,25.224-18.739c20.27-10.366,41.145-19.41,63.583-23.791
		c10.258-2.002,20.998-3.484,31.325-2.687c13.81,1.065,27.767,3.084,40.772,8.647c11.408,4.879,22.889,9.614,34.123,14.87
		c12.207,5.711,22.199,14.473,31.777,23.865c13.371,13.113,25.193,27.455,35.87,42.79c0.737,1.06,1.314,2.231,1.968,3.351
		C611.835,314.504,611.511,314.861,611.187,315.218z"/>
	<path fill-rule="evenodd" clip-rule="evenodd" fill="#F7941E" d="M540.543,714.392c-1.803-1.91-3.77-3.84-4.957-6.128
		c-8.928-17.195-17.824-34.41-26.447-51.76c-6.709-13.498-13.237-27.086-19.811-40.651c7.909,2.927,20.46,5.019,25.638-1.927
		c5.852-7.85,8.88-16.154,6.095-25.854c-3.182-11.079-12.077-15.363-22.156-17.905c-4.471-1.127-6.111,0.479-6.09,5.083
		c0.019,4.044-15.347,8.09-15.347,13.872c-0.461,3.085-0.185,6.205,0.619,9.338c-6.361-0.9-11.888-3.457-16.759-7.789
		c-3.383-3.009-4.994-2.344-8.13,1.151c-1.599,1.781-4.29,3.496-6.536,3.562c-3.136,0.091-6.35-1.278-9.465-2.234
		c-2.404-0.738-4.668-1.928-7.067-2.687c-0.909-0.287-1.736-0.336-2.474-0.161c1.479-5.242,2.867-10.511,4.156-15.799
		c0.429-1.761-16.547-4.952-18.131-5.951c-1.319-0.831-4.549-0.052-6.069,1.127c-4.179,3.242-8.097,6.885-11.751,10.718
		c-3.314,3.476-5.025,7.847-5.608,12.906c1.012,3.882,1.498,8.018,3.205,11.566c1.319,2.744,3.902,6.299,6.398,6.728
		c2.55,0.438,11.867-1.103,17.952-3.234c-6.382,14.065-14.029,27.22-27.286,36.397c-0.702,0.485-1.152,1.325-1.745,1.978
		c-4.754,5.221-10.034,9.663-16.5,12.784c-3.72,1.796-7.356,3.241-11.431,4.172c-7.25,1.655-14.295,4.212-21.894,6.536
		c0.967,3.748,4.313,5.467,7.602,7.404c4.67,2.753,9.168,5.798,13.752,8.7c11.012,6.97,21.494,15.053,33.167,20.645
		c20.067,9.612,41.7,15.203,63.546,19.036c16.305,2.861,32.938,4.339,49.486,5.142c10.006,0.486,20.154-1.299,30.191-2.471
		c3.357-0.393,6.772-1.925,7.785-5.806C545.468,719.094,542.832,716.818,540.543,714.392z"/>
</g>
<g>
	<path fill="#D0BF9E" d="M470.664,752.046c-2.338-0.939-4.657-1.966-6.871-3.163c-3.398-1.839-17.829-1.225-18.076,2.763
		c-0.273,4.415-0.062,8.858-0.062,13.29c0.019,0.003-0.558,0.271-1.414,0.655c-0.994-9.361-6.096-15.843-14.211-20.643
		c-4.116-2.435-8.566-4.84-13.183-2.152c-4.571,2.66-4.008,7.583-3.347,12.013c1.7,11.394,3.379,22.797,5.46,34.123
		c1.842,10.024,7.642,18.132,13.948,25.804c2.737,3.33,5.47,2.829,8.106-0.603c1.366-1.777,2.407-3.625,3.203-5.528
		c3.551,1.57,12.027,3.176,12.613,4.63c2.152,5.355,6.208,6.157,9.221,1.291c3.965-6.409,7.505-13.213,10.205-20.24
		c3.71-9.652,2.415-20.044,2.767-30.146C479.248,757.657,476.738,754.485,470.664,752.046z"/>
	<path fill-rule="evenodd" clip-rule="evenodd" fill="#D0BF9E" d="M533.662,506.177c-4.283-1.832-8.623-3.613-12.678-5.884
		c-5.076-2.843-9.768-6.373-14.837-9.23c-12.028-6.781-24.241-13.234-36.271-20.011c-22.013-12.399-40.432-29.65-60.016-45.268
		c-10.949-8.731-20.628-19.08-30.665-28.918c-5.869-5.753-11.122-12.136-17.005-17.874c-6.318-6.161-12.808-12.203-19.69-17.711
		c-4.392-3.515-6.939-2.223-8.188,3.446c-1.198,5.44-2.013,10.966-2.98,16.457c-3.094,17.572-6.935,34.991-5.439,53.127
		c1.081,13.106,2.462,25.902,8.399,37.924c2.697,5.464,5.993,9.797,11.594,12.466c25.959,12.37,51.856,24.872,77.793,37.291
		c1.003,0.479,2.172,0.686,3.289,0.843c2.872,0.403,5.745,0.801,8.618,1.2c-2.435,4.995-3.635,13.242-2.68,16.854
		c0.744,2.809,1.5,5.619,2.109,8.458c0.831,3.873,3.229,5.906,7.082,6.229c1.756,0.147,3.534,0.025,5.595,0.025
		c2.49,0.209,5.256,0.598,8.025,0.63c2.771,0.033,6.043,0.142,7.137-3.057c1.461-4.271,2.484-8.725,3.311-13.171
		c0.379-2.042-0.172-8.485-1.459-12.966c13.054-0.715,25.76-3.589,38.462-6.61c7.718-1.836,15.598-3,23.411-4.434
		c5.432-0.996,10.872-1.936,17.205-3.061C540.86,508.518,537.098,507.646,533.662,506.177z M380.213,434.465
		c-2.812,6.354-8.368,12.04-16.346,12.838c-7.035,0.703-12.786-1.851-16.926-7.964c-3.501-5.17-7.427-10.045-6.882-16.844
		c-0.348-0.146-0.695-0.292-1.042-0.438c1.637-3.292,2.717-7.055,5.023-9.781c5.416-6.402,13.109-8.601,21.119-8.552
		c5.673,0.035,8.864,5.107,12.089,8.941C382.665,419.105,383.316,427.451,380.213,434.465z"/>
</g>
<g>
	<path fill-rule="evenodd" clip-rule="evenodd" d="M707.083,339.636c1.41,22.435-3.869,43.91-8.648,65.47
		c-5.785,26.092-13.89,51.44-24.77,75.822c-7.882,17.666-18.702,33.479-30.669,48.79c-19.725,25.234-43.774,45.737-68.064,66.105
		c-3.566,2.99-7.58,5.571-11.718,7.698c-1.828,0.939-5.041,1.111-6.587,0.078c-1.26-0.843-1.724-4.179-1.258-6.098
		c4.377-18,5.24-36.36,5.736-54.733c0.145-5.388-0.795-10.857-1.719-16.206c-0.762-4.402-2.725-5.393-7.056-4.741
		c-8.275,1.242-16.622,2.109-24.827,3.702c-12.508,2.429-24.92,5.353-37.379,8.039c-2.352,0.507-4.735,0.865-7.098,1.328
		c-5.556,1.091-9.336,5.224-9.78,10.662c-0.452,5.545,2.06,10.048,7.578,11.786c5.043,1.589,10.361,2.314,15.571,3.354
		c10.178,2.031,18.584,7.204,25.771,14.508c7.815,7.943,7.362,18.063,6.583,27.91c-0.678,8.562-2.457,17.044-3.945,25.526
		c-0.26,1.484-1.15,3.282-2.329,4.105c-4.699,3.281-5.923,7.828-5.063,13.038c1.577,9.564,4.443,18.565,9.796,26.934
		c5.79,9.052,10.337,18.889,15.715,28.216c3.412,5.917,7.434,11.481,11.035,17.294c4.638,7.484,6.62,15.872,7.866,24.46
		c0.551,3.806-1.084,6.211-5.17,6.389c-4.238,0.185-8.744,0.111-12.725-1.146c-5.311-1.677-10.004-1.461-14.505,1.544
		c-6.685,4.463-14.479,5.688-22.03,6.54c-4.177,0.473-8.725-2.322-13.103-3.654c-1.592-0.483-3.512-1.777-4.672-1.28
		c-1.244,0.534-2.448,2.726-2.483,4.222c-0.107,4.522,0.459,9.057,0.584,13.591c0.35,12.789-1.55,25.381-7.109,36.806
		c-3.586,7.368-8.091,15.139-17.375,17.192c-1.842,0.407-4.611,0.227-5.845-0.898c-3.609-3.292-7.29-3.069-11.293-1.492
		c-8.939,3.521-14.875,1.647-20.823-5.994c-14.554-18.696-19.726-40.251-19.75-63.425c-0.009-9.255-0.161-9.588-8.857-13.109
		c-1.409-0.57-2.811-1.21-4.275-1.586c-4.72-1.212-7.429-3.961-7.779-9.02c-0.287-4.139-3.329-5.004-6.881-5.686
		c-3.9-0.747-7.773-1.987-11.425-3.557c-2.473-1.062-3.388-3.436-2.987-6.376c0.618-4.535-0.969-6.629-5.517-7.36
		c-3.118-0.502-6.32-0.447-9.464-0.818c-6.19-0.73-8.156-2.878-8.457-8.968c-0.216-4.379-1.989-6.744-6.225-8.022
		c-1.815-0.548-3.712-0.817-5.565-1.241c-5.096-1.163-9.292-4.811-9.456-8.702c-0.208-4.949,2.875-8.104,6.944-10.013
		c7.98-3.743,16.139-7.102,24.208-10.654c5.88-2.589,11.869-4.976,17.57-7.915c7.605-3.921,11.479-10.842,13.708-18.81
		c0.228-0.812,0.453-2.034,0.038-2.556c-2.995-3.765-2.314-8.213-2.223-12.403c0.172-7.974,0.817-15.938,1.267-23.907
		c0.015-0.253,0.074-0.508,0.056-0.759c-0.868-11.78,6.914-18.37,15.314-23.931c6.51-4.309,13.955-7.194,20.925-10.828
		c1.889-0.984,3.718-2.21,5.304-3.628c4.429-3.96,5.59-10.87,2.82-16.15c-0.386-0.735-1.079-1.493-1.818-1.835
		c-14.925-6.918-29.908-13.71-44.812-20.672c-8.38-3.913-16.628-8.106-24.959-12.126c-1.363-0.657-2.821-1.158-4.281-1.565
		c-3.477-0.968-5.363,0.95-4.467,4.46c5.863,22.954,12.143,45.768,21.967,67.439c0.973,2.146,1.613,4.592,1.751,6.938
		c0.228,3.871-1.939,5.305-5.281,3.315c-4.451-2.648-8.976-5.416-12.756-8.906c-12.097-11.168-24.625-21.962-34.407-35.383
		c-2.386-3.272-4.498-6.746-6.726-10.133c-0.836-1.271-1.412-2.82-2.503-3.801c-9.521-8.559-13.75-20.493-20.145-31.062
		c-19.572-32.351-32.767-67.191-40.513-104.073c-2.201-10.479-2.671-21.328-3.808-32.02c-0.563-5.29-0.583-10.645-1.287-15.911
		c-4.657-34.85-4.035-69.67,2.076-104.203c4.081-23.063,11.85-45.134,24.204-65.243c5.289-8.608,11.629-16.563,17.165-25.029
		c6.886-10.533,16.473-17.98,26.979-24.399c8.521-5.207,17.947-5.434,27.413-3.793c3.601,0.625,5.267-0.708,6.299-3.672
		c1.417-4.071,2.659-8.203,4.096-12.266c10.336-29.23,31.219-47.59,60.21-56.731c17.398-5.486,35.239-9.477,53.566-10.981
		c14.068-1.155,27.836,0.904,41.652,2.76c6.029,0.81,12.013,1.97,18.044,2.764c7.999,1.053,15.498,3.365,22.785,6.952
		c6.329,3.115,13.043,5.611,19.808,7.645c9.39,2.823,17.668,7.586,25.678,12.998c16.772,11.331,30.6,25.491,42.882,41.641
		c16.555,21.77,32.25,43.988,44.033,68.715c3.414,7.163,5.925,14.838,8.085,22.495c3.095,10.967,5.321,22.176,8.216,33.204
		c4.523,17.234,7.226,34.749,8.724,52.476C703.976,303.263,705.534,321.449,707.083,339.636z M338.952,670.229
		c0.967,3.748,4.313,5.467,7.602,7.404c4.67,2.753,9.168,5.798,13.752,8.7c11.012,6.97,21.494,15.053,33.167,20.645
		c20.067,9.612,41.7,15.203,63.546,19.036c16.305,2.861,32.938,4.339,49.486,5.142c10.006,0.486,20.154-1.299,30.191-2.471
		c3.357-0.393,6.772-1.925,7.785-5.806c0.987-3.785-1.648-6.061-3.938-8.487c-1.803-1.91-3.77-3.84-4.957-6.128
		c-8.928-17.195-17.824-34.41-26.447-51.76c-9.131-18.372-17.929-36.911-26.959-55.334c-0.524-1.071-1.756-2.42-2.773-2.525
		c-6.927-0.715-12.87-3.343-18.078-7.975c-3.383-3.009-4.994-2.344-8.13,1.151c-1.599,1.781-4.29,3.496-6.536,3.562
		c-3.136,0.091-6.35-1.278-9.465-2.234c-2.404-0.738-4.668-1.928-7.067-2.687c-2.375-0.751-4.207,0.099-5.278,2.441
		c-1.581,3.454-3.28,6.857-4.783,10.345c-6.879,15.956-14.694,31.228-29.548,41.511c-0.702,0.485-1.152,1.325-1.745,1.978
		c-4.754,5.221-10.034,9.663-16.5,12.784c-3.72,1.796-7.356,3.241-11.431,4.172C353.595,665.348,346.55,667.904,338.952,670.229z
		 M543.785,512.934c-2.925-4.416-6.688-5.288-10.123-6.757c-4.283-1.832-8.623-3.613-12.678-5.884
		c-5.076-2.843-9.768-6.373-14.837-9.23c-12.028-6.781-24.241-13.234-36.271-20.011c-22.013-12.399-40.432-29.65-60.016-45.268
		c-10.949-8.731-20.628-19.08-30.665-28.918c-5.869-5.753-11.122-12.136-17.005-17.874c-6.318-6.161-12.808-12.203-19.69-17.711
		c-4.392-3.515-6.939-2.223-8.188,3.446c-1.198,5.44-2.013,10.966-2.98,16.457c-3.094,17.572-6.935,34.991-5.439,53.127
		c1.081,13.106,2.462,25.902,8.399,37.924c2.697,5.464,5.993,9.797,11.594,12.466c25.959,12.37,51.856,24.872,77.793,37.291
		c1.003,0.479,2.172,0.686,3.289,0.843c8.772,1.232,17.548,2.452,26.331,3.608c2.758,0.363,5.55,0.803,8.313,0.727
		c14.145-0.39,27.853-3.482,41.555-6.742c7.718-1.836,15.598-3,23.411-4.434C532.012,514.998,537.452,514.059,543.785,512.934z
		 M611.187,315.218c0.324-0.356,0.648-0.714,0.974-1.071c-0.653-1.12-1.23-2.292-1.968-3.351
		c-10.677-15.335-22.499-29.677-35.87-42.79c-9.578-9.393-19.57-18.154-31.777-23.865c-11.234-5.256-22.715-9.991-34.123-14.87
		c-13.006-5.562-26.963-7.582-40.772-8.647c-10.327-0.797-21.067,0.685-31.325,2.687c-22.438,4.38-43.313,13.424-63.583,23.791
		c-9.415,4.814-18.01,10.87-25.224,18.739c-8.652,9.438-17.406,18.782-26.03,28.244c-1.943,2.133-3.532,4.589-5.284,6.896
		c1.292,0.431,1.924,0.31,2.397-0.033c2.053-1.484,4.228-2.855,6.054-4.587c15.624-14.821,34.26-25.264,52.798-35.69
		c8.759-4.926,18.34-8.685,27.943-11.73c9.506-3.015,19.534-4.357,29.287-6.628c16.866-3.929,33.682-3.312,50.602-0.235
		c17.1,3.109,33.607,8.176,48.842,16.371c26.934,14.487,51.375,32.549,73.196,54.066
		C608.426,313.602,609.891,314.325,611.187,315.218z M446.779,790.529c-0.828-7.421-2.191-14.832-2.357-22.269
		c-0.24-10.826-5.525-18.067-14.393-23.312c-4.116-2.435-8.566-4.84-13.183-2.152c-4.571,2.66-4.008,7.583-3.347,12.013
		c1.7,11.394,3.379,22.797,5.46,34.123c1.842,10.024,7.642,18.132,13.948,25.804c2.737,3.33,5.47,2.829,8.106-0.603
		C446.438,807.077,446.759,798.925,446.779,790.529z M458.541,764.936c0.087,0.016,0.174,0.031,0.26,0.047
		c-0.621,6.167-1.359,12.324-1.833,18.502c-0.608,7.942-1.108,15.897-1.413,23.856c-0.075,1.953,0.531,4.046,1.275,5.894
		c2.152,5.355,6.208,6.157,9.221,1.291c3.965-6.409,7.505-13.213,10.205-20.24c3.71-9.652,2.415-20.044,2.767-30.146
		c0.226-6.482-2.284-9.654-8.358-12.094c-2.338-0.939-4.657-1.966-6.871-3.163c-3.398-1.839-4.942-1.225-5.189,2.763
		C458.33,756.061,458.541,760.504,458.541,764.936z M492.818,589.121c-1.158,7.756,2.279,15.728,7.299,23.597
		c4.07,6.381,10.735,6.106,14.849,1.208c6.296-7.498,8.88-16.154,6.095-25.854c-3.182-11.079-12.077-15.363-22.156-17.905
		c-4.471-1.127-6.111,0.479-6.09,5.083C492.833,579.293,492.818,583.339,492.818,589.121z M390.252,593.302
		c1.012,3.882,1.498,8.018,3.205,11.566c1.319,2.744,3.902,6.299,6.398,6.728c3.76,0.646,6.786-3.01,7.907-6.52
		c3.219-10.083,6.088-20.293,8.593-30.574c0.429-1.761-1.089-4.952-2.673-5.951c-1.319-0.831-4.549-0.052-6.069,1.127
		c-4.179,3.242-8.097,6.885-11.751,10.718C392.547,583.871,390.836,588.242,390.252,593.302z M447.693,555.602
		c2.49,0.209,5.256,0.598,8.025,0.63c2.771,0.033,6.043,0.142,7.137-3.057c1.461-4.271,2.484-8.725,3.311-13.171
		c0.607-3.272-1.173-5.176-4.551-4.856c-7.146,0.676-13.985-0.002-20.883-2.362c-5.539-1.895-9.32,2.451-7.825,8.104
		c0.744,2.809,1.5,5.619,2.109,8.458c0.831,3.873,3.229,5.906,7.082,6.229C443.854,555.724,445.633,555.602,447.693,555.602z"/>
	<path fill-rule="evenodd" clip-rule="evenodd" d="M339.017,422.057c1.637-3.292,2.717-7.055,5.023-9.781
		c5.416-6.402,13.109-8.601,21.119-8.552c5.673,0.035,8.864,5.107,12.089,8.941c5.417,6.439,6.068,14.785,2.965,21.799
		c-2.812,6.354-8.368,12.04-16.346,12.838c-7.035,0.703-12.786-1.851-16.926-7.964c-3.501-5.17-7.427-10.045-6.882-16.844
		C339.711,422.349,339.364,422.203,339.017,422.057z M358.921,416.889c-3.737,0.068-7.052,3.975-6.876,8.104
		c0.189,4.43,4.09,8,8.626,7.894c3.921-0.092,7.53-3.468,7.576-7.085C368.297,421.705,363.176,416.811,358.921,416.889z"/>
</g>
<path fill-rule="evenodd" clip-rule="evenodd" fill="#009999" d="M358.921,416.889c4.255-0.078,9.376,4.816,9.326,8.912
	c-0.045,3.617-3.654,6.994-7.576,7.085c-4.537,0.106-8.438-3.463-8.626-7.894C351.869,420.863,355.184,416.957,358.921,416.889z"/>
</svg>
